<svg width="512" height="512" xmlns="http://www.w3.org/2000/svg">

 <g>
  <title>Layer 1</title>
  <rect stroke="#000" id="svg_23" height="186" width="61" y="207" x="437" opacity="undefined" fill-opacity="null" stroke-opacity="null" stroke-dasharray="null" stroke-width="0" fill="#eaeaea"/>
  <path stroke="#000" transform="rotate(-70 367.2069702148438,227.92056274414065) " id="svg_22" d="m284.11261,346.43981l83.09437,-237.03851l83.09437,237.03851l-166.18874,0z" opacity="undefined" fill-opacity="null" stroke-opacity="null" stroke-dasharray="null" stroke-width="0" fill="#eaeaea"/>
  <path stroke="#000" transform="rotate(130.07691955566406 484.5265502929688,413.1144104003906) " id="svg_21" d="m436.22816,438.2159l48.29838,-50.20298l48.29838,50.20298l-96.59675,0z" opacity="undefined" fill-opacity="null" stroke-opacity="null" stroke-dasharray="null" stroke-width="0" fill="#eaeaea"/>
  <path stroke="#000" transform="rotate(-103 255.33993530273438,134.71458435058594) " id="svg_18" d="m231.39581,308.79467l23.94412,-348.16018l23.94413,348.16018l-47.88825,0z" opacity="undefined" fill-opacity="null" stroke-opacity="null" stroke-dasharray="null" stroke-width="0" fill="#eaeaea"/>
  <path stroke="#000" transform="rotate(-93.97065734863281 294.02389526367193,162.7201080322266) " id="svg_16" d="m265.52447,339.67616l28.49943,-353.91207l28.49943,353.91207l-56.99886,0z" opacity="undefined" fill-opacity="null" stroke-opacity="null" stroke-dasharray="null" stroke-width="0" fill="#eaeaea"/>
  <ellipse ry="93.5" rx="93.5" id="svg_19" cy="308.5" cx="257.5" opacity="undefined" stroke-opacity="null" stroke-dasharray="null" stroke-width="0" stroke="#000" fill="#ffffff"/>
  <rect stroke="#000" transform="rotate(-136 334.8276672363282,277.1277160644531) " id="svg_20" height="99.42413" width="362.15657" y="227.41565" x="153.74938" opacity="undefined" stroke-opacity="null" stroke-dasharray="null" stroke-width="0" fill="#eaeaea"/>
  <ellipse stroke="#000" ry="88.38692" rx="88.38692" id="svg_25" cy="309.86834" cx="256.71222" opacity="undefined" stroke-opacity="null" stroke-dasharray="null" stroke-width="0" fill="#ffffff"/>
  <g id="svg_1">
   <path id="svg_2" d="m257,269.158c8.822,0 16,7.178 16,16c0,4.418 3.582,8 8,8s8,-3.582 8,-8c0,-14.883 -10.214,-27.426 -24,-30.987l0,-9.013c0,-4.418 -3.582,-8 -8,-8s-8,3.582 -8,8l0,9.013c-13.786,3.562 -24,16.104 -24,30.987c0,17.645 14.355,32 32,32c8.822,0 16,7.178 16,16s-7.178,16 -16,16s-16,-7.178 -16,-16c0,-4.418 -3.582,-8 -8,-8s-8,3.582 -8,8c0,14.883 10.214,27.426 24,30.987l0,9.013c0,4.418 3.582,8 8,8s8,-3.582 8,-8l0,-9.013c13.786,-3.562 24,-16.104 24,-30.987c0,-17.645 -14.355,-32 -32,-32c-8.822,0 -16,-7.178 -16,-16s7.178,-16 16,-16z" fill="#999999"/>
   <path id="svg_3" d="m257,205.158c-57.346,0 -104,46.654 -104,104s46.654,104 104,104s104,-46.654 104,-104s-46.654,-104 -104,-104zm0,192c-48.523,0 -88,-39.477 -88,-88s39.477,-88 88,-88s88,39.477 88,88s-39.477,88 -88,88z" fill="#999999"/>
   <path id="svg_4" d="m488.063,173.158l-5.114,-40.913c-1.656,-13.25 -13.79,-22.631 -27.134,-20.792l-11.581,1.656l-7.522,-30.087c-3.212,-12.855 -16.345,-20.899 -29.603,-17.332l-383.32,107.499c-12.673,0.633 -22.789,11.142 -22.789,23.969l0,224c0,13.233 10.767,24 24,24l464,0c13.233,0 24,-10.767 24,-24l0,-224c0,-12.394 -9.596,-24 -24.937,-24zm-30.023,-45.861c4.439,-0.608 8.482,2.524 9.031,6.933l4.866,38.929l-334.515,0l320.618,-45.862zm-46.69,-46.179c4.327,-1.162 8.753,1.439 9.841,5.785l7.121,28.484l-284.027,40.627l267.065,-74.896zm85.65,340.04c0,4.411 -3.589,8 -8,8l-464,0c-4.411,0 -8,-3.589 -8,-8l0,-224c0,-4.405 3.58,-7.99 7.983,-7.999c2.534,-0.005 -39.895,-0.001 464.017,-0.001c4.411,0 8,3.589 8,8l0,224z" fill="#999999"/>
   <path id="svg_5" d="m473,229.158c-8.822,0 -16,-7.178 -16,-16c0,-4.418 -3.582,-8 -8,-8l-104,0c-4.418,0 -8,3.582 -8,8s3.582,8 8,8l97.013,0c2.9,11.229 11.759,20.087 22.987,22.987l0,130.025c-11.229,2.9 -20.087,11.759 -22.987,22.987l-97.013,0c-4.418,0 -8,3.582 -8,8s3.582,8 8,8l104,0c4.418,0 8,-3.582 8,-8c0,-8.822 7.178,-16 16,-16c4.418,0 8,-3.582 8,-8l0,-144c0,-4.417 -3.582,-7.999 -8,-7.999z" fill="#999999"/>
   <path id="svg_6" d="m169,397.158l-97.013,0c-2.9,-11.229 -11.759,-20.087 -22.987,-22.987l0,-130.026c11.229,-2.9 20.087,-11.759 22.987,-22.987l97.013,0c4.418,0 8,-3.582 8,-8s-3.582,-8 -8,-8l-104,0c-4.418,0 -8,3.582 -8,8c0,8.822 -7.178,16 -16,16c-4.418,0 -8,3.582 -8,8l0,144c0,4.418 3.582,8 8,8c8.822,0 16,7.178 16,16c0,4.418 3.582,8 8,8l104,0c4.418,0 8,-3.582 8,-8s-3.582,-8 -8,-8z" fill="#999999"/>
   <path id="svg_7" d="m73,309.158c0,13.233 10.767,24 24,24s24,-10.767 24,-24s-10.767,-24 -24,-24s-24,10.767 -24,24zm32,0c0,4.411 -3.589,8 -8,8s-8,-3.589 -8,-8s3.589,-8 8,-8s8,3.589 8,8z" fill="#999999"/>
   <path id="svg_8" d="m441,309.158c0,-13.233 -10.767,-24 -24,-24s-24,10.767 -24,24s10.767,24 24,24s24,-10.766 24,-24zm-32,0c0,-4.411 3.589,-8 8,-8s8,3.589 8,8s-3.589,8 -8,8s-8,-3.589 -8,-8z" fill="#999999"/>
  </g>
  <ellipse stroke="#000" ry="15.8904" rx="15.8904" id="svg_24" cy="285.17534" cx="256.95618" opacity="undefined" stroke-opacity="null" stroke-dasharray="null" stroke-width="0" fill="#ffffff"/>
 </g>
</svg>