<svg width="512" height="512" xmlns="http://www.w3.org/2000/svg">

 <g>
  <title>Layer 1</title>
  <rect id="svg_3" height="382" width="83" y="100" x="161" opacity="undefined" stroke-opacity="null" stroke-dasharray="null" stroke-width="0" stroke="#000" fill="#eaeaea"/>
  <ellipse stroke-width="0" stroke="#000" ry="180.5" rx="97.5" id="svg_2" cy="293.5" cx="147.5" opacity="undefined" fill="#eaeaea"/>
  <path id="svg_1" d="m479.451,112.98l-53.74,-53.74c-7.811,-7.811 -20.474,-7.811 -28.284,0s-7.811,20.474 0,28.284l12.728,12.728l-26.102,26.102c-33.978,-28.346 -75.292,-45.458 -119.362,-49.441l0,-36.913l18,0c11.046,0 20,-8.954 20,-20s-8.954,-20 -20,-20l-76,0c-11.046,0 -20,8.954 -20,20s8.954,20 20,20l18,0l0,36.913c-109.724,9.916 -198,102.055 -198,217.087c0,120.482 97.501,218 218,218c120.482,0 218,-97.501 218,-218c0,-51.511 -17.756,-100.286 -50.354,-139.362l26.102,-26.102l12.728,12.728c7.81,7.81 20.473,7.811 28.284,0c7.81,-7.81 7.81,-20.473 0,-28.284zm-234.76,359.02c-98.149,0 -178,-79.851 -178,-178s79.851,-178 178,-178s178,79.851 178,178s-79.85,178 -178,178zm103.923,-178c0,11.046 -8.954,20 -20,20l-83.922,0c-11.046,0 -20,-8.954 -20,-20l0,-117.675c0,-11.046 8.954,-20 20,-20s20,8.954 20,20l0,97.675l63.922,0c11.046,0 20,8.954 20,20z" fill="#999999"/>
 </g>
</svg>
