<svg width="512" height="512" xmlns="http://www.w3.org/2000/svg">

 <g>
  <title>Layer 1</title>
  <rect id="svg_7" height="397" width="98" y="88" x="127" opacity="undefined" stroke-opacity="null" stroke-dasharray="null" stroke-width="0" stroke="#000" fill="#eaeaea"/>
  <ellipse stroke-width="0" stroke="#000" ry="169" rx="109" id="svg_6" cy="287" cx="114" opacity="undefined" fill="#eaeaea"/>
  <path id="svg_1" d="m293.35547,394.66797c-4.82031,0 -9.57813,-2.17578 -12.73828,-6.27344l-69.33203,-90.66797c-2.13282,-2.79297 -3.28516,-6.20703 -3.28516,-9.72656l0,-122.66797c0,-8.83203 7.16797,-16 16,-16s16,7.16797 16,16l0,117.25l66.04688,86.35547c5.3789,7.01953 4.01171,17.06641 -2.98438,22.42188c-2.92578,2.24218 -6.33594,3.30859 -9.70703,3.30859zm0,0" fill="#999999"/>
  <path id="svg_2" d="m224,512c-123.51953,0 -224,-100.48047 -224,-224s100.48047,-224 224,-224s224,100.48047 224,224s-100.48047,224 -224,224zm0,-416c-105.87891,0 -192,86.14453 -192,192s86.12109,192 192,192s192,-86.14453 192,-192s-86.12109,-192 -192,-192zm0,0" fill="#999999"/>
  <path id="svg_3" d="m298.66797,32l-149.33594,0c-8.83203,0 -16,-7.16797 -16,-16s7.16797,-16 16,-16l149.33594,0c8.83203,0 16,7.16797 16,16s-7.16797,16 -16,16zm0,0" fill="#999999"/>
  <path id="svg_4" d="m224,96c-8.83203,0 -16,-7.16797 -16,-16l0,-64c0,-8.83203 7.16797,-16 16,-16s16,7.16797 16,16l0,64c0,8.83203 -7.16797,16 -16,16zm0,0" fill="#999999"/>
  <path id="svg_5" d="m370.98828,157.01172c-4.09765,0 -8.19531,-1.55469 -11.30859,-4.69141c-6.25,-6.25 -6.25,-16.38281 0,-22.63672l50.34765,-50.34375c6.26953,-6.27343 16.40625,-6.23046 22.63282,0c6.25,6.25 6.25,16.38282 0,22.63282l-50.34375,50.34765c-3.16016,3.13672 -7.23438,4.69141 -11.32813,4.69141zm0,0" fill="#999999"/>
 </g>
</svg>
